<?xml version="1.0" encoding="UTF-8"?><svg id="Ebene_1" xmlns="http://www.w3.org/2000/svg" viewBox="0 0 160.65 153.98"><defs><style>.cls-1{fill:#1d1d1b;}.cls-2{fill:none;stroke:#1d1d1b;stroke-linecap:round;stroke-miterlimit:10;stroke-width:9px;}</style></defs><path class="cls-2" d="m4.5,111.07c18.92,21.28,38.87,29.31,48.97,32.5,20.43,6.45,61.5,12.31,76.68-9.22,7.46-10.58,5.69-23.55,4.9-29.4-5.3-39.17-49.89-61.85-80.87-67.02-8.55-1.43-22.41-3.74-26.68,2.7-6.05,9.12,9.29,32.61,27.12,46.16,30.58,23.25,81.31,27.02,96.64,5.3,4.42-6.27,4.76-13.06,4.87-16.13.82-22.44-18.27-41.98-36.92-55.64"/><polygon class="cls-1" points="133.39 14.09 84.89 0 119.85 36.46 133.39 14.09"/></svg>